<?xml version="1.0" encoding="UTF-8"?>
<svg width="130px" height="130px" viewBox="0 0 130 130" version="1.1" xmlns="http://www.w3.org/2000/svg" xmlns:xlink="http://www.w3.org/1999/xlink">
    <!-- Generator: Sketch 45.1 (43504) - http://www.bohemiancoding.com/sketch -->
    <title>crystal2</title>
    <desc>Created with Sketch.</desc>
    <defs></defs>
    <g id="Page-1" stroke="none" stroke-width="1" fill="none" fill-rule="evenodd">
        <g id="crystal2">
            <rect id="Rectangle-Copy" fill="#FFFFFF" x="0" y="0" width="130" height="130"></rect>
            <path d="M65.000052,19.000095 C90.347504,19.000095 110.956039,39.6026084 110.999952,64.999905 C110.999952,90.3641897 90.3642367,110.999905 64.999952,110.999905 C39.6655957,110.999905 19.0798628,90.4267704 19.000048,65.000095 C19.000048,39.635811 39.6357665,19.000095 65.000052,19.000095 Z M65.000052,21.000095 C40.740336,21.000095 21.000048,40.7403805 21.0000431,64.9969558 C21.0763967,89.3195076 40.7688458,108.999905 64.999952,108.999905 C89.2596673,108.999905 108.999952,89.2596203 108.999953,65.0016341 C108.957948,40.7086418 89.2436414,21.000095 65.000052,21.000095 Z M105.525505,78.9559831 C106.900829,74.9697925 107.681589,70.7858517 107.82862,66.500905 L99.9425651,66.500905 L105.525505,78.9559831 Z M109.862509,64.500905 L109.851392,65.5119009 C109.788641,71.2182553 108.653819,76.7701938 106.530847,81.9576639 L105.647157,84.116957 L96.8543389,64.500905 L109.862509,64.500905 Z M22.1766228,66.683905 C22.3446154,70.9763479 23.1452281,75.1659785 24.5384228,79.1446193 L30.1206995,66.683905 L22.1766228,66.683905 Z M24.4297455,84.2791123 L23.5415105,82.1369239 C21.3985138,76.9685814 20.2392996,71.4118289 20.148976,65.6997157 L20.1329133,64.683905 L33.2082045,64.683905 L24.4297455,84.2791123 Z M24.5356568,50.8578973 C23.1155559,54.909791 22.3119125,59.1772669 22.1659737,63.5509049 L30.2042669,63.550905 L24.5356568,50.8578973 Z M20.1338367,65.550905 L20.1441026,64.5407428 C20.203014,58.743918 21.3641462,53.106688 23.5407463,47.8625586 L24.4307313,45.7182987 L33.2878371,65.550905 L20.1338367,65.550905 Z M97.1609214,62.0920062 L103.28775,48.377056 L89.8314803,43.4247702 C89.6550904,45.378062 89.514789,48.9031384 89.4288894,53.4800956 L97.1609214,62.0920062 Z M87.4220114,53.8374511 C87.5311071,47.7279388 87.7308605,43.4388741 88.0074657,41.8760257 L88.2157844,40.6990037 L105.986574,47.239154 L97.7306026,65.7202038 L87.4149891,54.2307088 L87.4220114,53.8374511 Z M86.7259996,86.5551301 C86.5945882,84.9720442 86.4813543,82.6365956 86.3945445,79.7711977 L80.6660077,86.1534052 C83.2041817,86.2606401 85.2418458,86.4007072 86.7281867,86.5816381 C86.7274574,86.5728299 86.7267284,86.563994 86.7259996,86.5551301 Z M87.6699209,88.7440453 C86.0282151,88.4340935 82.8515397,88.2147828 78.4638331,88.0733862 L76.3172736,88.0042119 L88.2704163,74.6871226 L88.3277839,77.2113844 C88.4182992,81.1942008 88.5551372,84.4139194 88.7192088,86.3904596 C88.7605272,86.892983 88.8017651,87.2923838 88.8466736,87.629269 L89.0294962,89.0007312 L87.6699209,88.7440453 Z M86.2867378,75.207055 C86.1996313,70.5974096 86.1669309,65.4293567 86.1965249,60.3762748 C86.2124735,58.0206161 86.2309257,56.2032565 86.2564628,54.6261044 L76.602125,43.872945 C72.8631993,43.9841821 68.6205219,44.042835 64.363912,44.042835 C60.5865835,44.042835 56.8456831,43.9960459 53.496884,43.9067712 L43.7259487,54.895766 C43.8371507,61.0687542 43.8452449,68.3652947 43.7461862,74.6398702 C43.7432792,74.8931795 43.740899,75.080389 43.7383006,75.2420722 L53.4620399,86.0687859 C57.1420706,85.9656973 61.0250969,85.9182785 64.7584278,85.9059001 C68.4575085,85.8940474 72.6937531,85.9251681 76.5718783,86.0196389 L86.2867378,75.207055 Z M76.9817714,88.0305606 C73.0025918,87.9276223 68.5934785,87.893622 64.7649476,87.9058895 C60.8904197,87.9187361 56.8530913,87.969491 53.0570581,88.081242 L52.5935151,88.0948881 L41.7213612,75.9894939 L41.730922,75.5925934 C41.7374042,75.3234953 41.7409231,75.0870112 41.7463766,74.6126111 C41.8472317,68.223664 41.8366777,60.7733369 41.71909,54.5422628 L41.7117104,54.1512095 L52.6212442,41.8816767 L53.0870547,41.8947911 C56.5335364,41.9918227 60.4285153,42.042835 64.363912,42.042835 C68.7779179,42.042835 73.1761848,41.979487 77.0046476,41.8597339 L77.4693865,41.845197 L88.2695953,53.8746463 L88.2627608,54.2676334 C88.2338918,55.9276239 88.213726,57.842389 88.1964849,60.3889015 C88.1661478,65.5689246 88.2015066,70.871351 88.2939678,75.5623384 L88.301744,75.9568594 L77.4430774,88.0424942 L76.9817714,88.0305606 Z M73.7635676,89.1506864 C68.1859428,89.0620332 61.8333958,89.0678085 56.2416225,89.1664928 L64.9993083,98.9133234 L73.7635676,89.1506864 Z M51.8409032,87.2611531 L54.0156497,87.2111591 C60.8334447,87.0544288 69.1962748,87.0468775 75.9899286,87.1915918 L78.1683533,87.2379953 L64.9999557,101.906467 L51.8409032,87.2611531 Z M43.2910349,86.6519314 C44.8020548,86.4723413 46.8667107,86.3280515 49.3840343,86.2163107 L43.637216,79.8177199 C43.5491066,82.9108123 43.4346453,85.1287815 43.2910349,86.6519314 Z M53.7267285,88.0584096 L51.5851754,88.1318082 C47.2660688,88.2798393 44.0080391,88.5084388 42.3218411,88.8118944 L40.9440238,89.0598525 L41.156283,87.676086 C41.4003815,86.084752 41.5817647,82.830765 41.6995451,77.2557732 L41.7529765,74.7266602 L53.7267285,88.0584096 Z M40.6369032,71.7879821 C40.6796058,67.4799869 40.6789362,62.7899647 40.6360336,58.3723074 L34.6419997,65.1134392 L40.6369032,71.7879821 Z M42.5696838,53.1877856 L42.6054754,55.7630984 C42.6890825,61.7788749 42.6901303,68.5818816 42.6054653,74.3776016 L42.5681613,76.9312391 L31.9597443,65.1201508 L42.5696838,53.1877856 Z M43.6161212,50.2969274 L49.4244015,43.7643745 C46.8565775,43.6523028 44.7753609,43.5104141 43.272873,43.3401683 C43.4079066,44.8580734 43.519228,47.0964625 43.6161212,50.2969274 Z M42.3050447,41.1893494 C43.9542513,41.4708286 47.2073351,41.6969168 51.6123797,41.8475592 L53.7402259,41.9203267 L41.7260976,55.4325757 L41.6799644,52.8729958 C41.6666667,52.135209 41.6490147,51.4491327 41.6177578,50.3812657 C41.4899998,46.1514872 41.3373948,43.6382475 41.1470341,42.3177817 L40.9510422,40.9582543 L42.3050447,41.1893494 Z M56.2836546,40.7716943 C61.8661183,40.8556674 68.2143095,40.8499867 73.8007513,40.7561685 L65.0077923,30.9608123 L56.2836546,40.7716943 Z M78.2027802,42.6660375 L76.0261438,42.7136558 C69.2203764,42.8625457 60.8705931,42.8700923 54.0701495,42.7332225 L51.9018458,42.6895819 L65.0007517,27.9589777 L78.2027802,42.6660375 Z M86.7157489,43.2884248 C85.2216696,43.4592144 83.1727748,43.6039081 80.6667542,43.7196897 L86.348996,50.0490233 C86.4392525,47.0156223 86.561837,44.8120729 86.7157489,43.2884248 Z M76.3328867,41.8860951 L78.4677425,41.8083573 C82.7986828,41.6506521 86.036279,41.4176953 87.7038006,41.1343283 L89.0829878,40.8999587 L88.8583564,42.2807654 C88.5974632,43.8844727 88.4007858,47.145088 88.2851081,52.6100574 L88.2315609,55.1397862 L76.3328867,41.8860951 Z M95.503845,64.9320218 L89.3634605,58.0937869 C89.3190317,62.5475539 89.3197938,67.3398902 89.3660283,71.767945 L95.503845,64.9320218 Z M87.4371456,76.9098184 L87.3987253,74.3572449 C87.3092666,68.4137817 87.3082158,61.4984824 87.3948063,55.5037521 L87.431708,52.9490227 L98.191779,64.9319682 L87.4371456,76.9098184 Z M81.5131707,26.2491383 L67.9190796,29.5164515 L77.9239861,40.6623759 C81.9585191,40.5536204 84.9451019,40.3946951 86.6441031,40.1909663 L81.5131707,26.2491383 Z M87.0067382,41.1763226 L87.945202,40.830945 L87.185965,40.1801308 C87.0610925,40.3258065 86.9630153,40.4842404 86.8935616,40.6727865 L87.831922,41.018445 L87.6280689,40.0394435 C87.3737682,40.0923954 87.0447323,40.1429265 86.6441031,40.1909663 L87.0067382,41.1763226 Z M88.5786191,41.8844125 L88.0357751,41.9974465 C86.4953293,42.3182067 82.892657,42.5365647 77.5139117,42.6738196 L77.0525298,42.6855931 L64.1897244,28.3558385 L82.7756333,23.8887517 L89.0863295,41.0362475 L88.7438998,41.4357245 L88.5786191,41.8844125 Z M77.4811623,23.9968074 C73.9636739,22.924065 70.3027213,22.3070055 66.566212,22.1715053 L66.566212,26.6200816 L77.4811623,23.9968074 Z M64.566212,20.1336996 L65.579123,20.1467784 C71.0533908,20.2174624 76.3888197,21.2742608 81.3896186,23.2435402 L84.3399083,24.4053435 L64.566212,29.1577084 L64.566212,20.1336996 Z M63.433412,22.1715543 C59.6895253,22.3070326 56.0256416,22.9248235 52.507504,23.9996643 L63.433412,26.624143 L63.433412,22.1715543 Z M45.6549317,24.4105192 L48.6013381,23.2478032 C53.6002353,21.2751298 58.9365713,20.2175771 64.4205211,20.1468781 L65.433412,20.1338199 L65.433412,29.161447 L45.6549317,24.4105192 Z M43.318865,40.9860316 C43.3191638,40.9839666 43.3193358,40.982778 43.3178084,40.9735347 C43.31783,40.9738259 43.3181823,40.9779916 43.318865,40.9860316 Z M52.1622639,40.6863398 L62.0890121,29.5257486 L48.4631631,26.2490408 L43.314173,40.237833 C45.0191358,40.4287267 48.0767827,40.5816868 52.1622639,40.6863398 Z M42.4984121,40.1262593 L42.328132,41.111655 L43.2982928,40.8691924 C43.3105394,40.9336447 43.3157369,40.960998 43.3178084,40.9735347 C43.3111874,40.8844293 43.2934548,40.7818651 43.2488189,40.6628487 C43.2343263,40.6229716 43.2182478,40.5840858 43.2006629,40.5462177 C43.140955,40.417641 43.0638788,40.3007983 42.9725391,40.1967261 C42.8567093,40.0647501 42.7179419,39.9533108 42.562568,39.8645216 L42.066412,40.732755 L43.004859,41.0781783 L43.314173,40.237833 C43.1934779,40.2243196 43.0795615,40.2106161 42.9725391,40.1967261 C42.7954463,40.173742 42.6372299,40.1502475 42.4984121,40.1262593 Z M41.3259201,41.1538721 L41.3256615,41.1508158 C41.3258296,41.1548348 41.3261256,41.1592901 41.3265546,41.1641388 C41.3263505,41.1609394 41.3261439,41.1575483 41.3259201,41.1538721 Z M40.8357411,41.1812464 L47.2008609,23.8884692 L65.8012519,28.3614414 L53.0402685,42.7085485 L52.5768667,42.6973006 C47.3681088,42.570871 43.7449491,42.371307 42.1578519,42.0970507 L41.515922,41.9861228 L41.3945794,41.5005972 L40.8357411,41.1812464 Z M41.570256,41.6009884 C41.4926651,41.5566487 41.4142661,41.4700466 41.3726937,41.3557071 C41.3445731,41.280857 41.3303528,41.2070754 41.3265546,41.1641388 C41.3289813,41.2021793 41.3310684,41.213118 41.3579712,41.3541176 L41.3945794,41.5005972 L41.570256,41.6009884 Z M26.8574895,48.3754391 L33.0355449,62.2038268 L40.5672276,53.7314843 C40.4768119,49.0533153 40.3364447,45.4842572 40.1590798,43.480163 L26.8574895,48.3754391 Z M41.9907734,41.9406879 C42.2634989,43.5924405 42.4598506,47.898024 42.574271,54.0851047 L42.5814979,54.475884 L32.4727391,65.8471632 L24.1585945,47.2375509 L41.7937509,40.7474277 L41.9907734,41.9406879 Z M26.8622981,81.6208718 L40.1707266,86.5197136 C40.3459872,84.5320549 40.4847872,80.9947165 40.5712636,76.4007623 L32.9833876,67.9549569 L26.8622981,81.6208718 Z M42.5852315,75.6498398 L42.5781711,76.0433349 C42.4688424,82.1365022 42.2729299,86.4292856 42.0023447,88.0600795 L41.8045268,89.2523116 L24.1615459,82.7579182 L32.4154764,64.3302331 L42.5852315,75.6498398 Z M48.4684902,103.615041 L62.0769958,100.344012 L52.1208975,89.2608905 C48.117185,89.3777478 45.08465,89.5441358 43.3627196,89.7463815 L48.4684902,103.615041 Z M43.0491871,88.8947422 L42.110762,89.240225 L42.6818426,90.061119 C42.7914634,89.9848578 42.8909104,89.8959089 42.977539,89.7952242 C43.0814184,89.6744897 43.1668659,89.5368801 43.2293219,89.3840373 C43.2399782,89.357959 43.2499653,89.3314373 43.2592603,89.3044803 C43.3004809,89.1830024 43.3157647,89.078602 43.3192,89.008699 C43.3196653,89.0159734 43.3196653,89.0159734 43.2985128,89.1273076 L42.328352,88.884845 L42.5057807,89.8689787 C42.5182074,89.8667383 42.5307825,89.8645014 42.5435058,89.8622682 C42.6729795,89.8395427 42.8177908,89.8171893 42.977539,89.7952242 C43.0975579,89.7787218 43.2260081,89.7624387 43.3627196,89.7463815 L43.0491871,88.8947422 Z M41.5148914,88.015381 L42.1509233,87.9007113 C43.7642698,87.6098423 47.3887628,87.3910071 52.5276332,87.2485092 L52.9900992,87.2356853 L65.8077082,101.504238 L47.2062338,105.975409 L40.9053865,88.860598 L41.3874725,88.5252199 L41.5148914,88.015381 Z M52.2738668,105.921539 C55.8699289,107.042638 59.6134214,107.686617 63.433732,107.82483 L63.433732,103.239408 L52.2738668,105.921539 Z M65.433732,109.862301 L64.4210122,109.849418 C58.8735378,109.778849 53.465291,108.69076 48.3947038,106.664821 L45.4755437,105.498478 L65.433732,100.701782 L65.433732,109.862301 Z M66.566532,107.824854 C70.3866213,107.686814 74.1287063,107.044163 77.7193326,105.925269 L66.566532,103.243469 L66.566532,107.824854 Z M84.5148225,105.502302 L81.5977908,106.668634 C76.5365803,108.692285 71.1283185,109.778792 65.5792596,109.849424 L64.566532,109.862315 L64.566532,100.705541 L84.5148225,105.502302 Z M77.8960769,89.2366267 L67.9195358,100.347621 L81.5166912,103.618266 L86.6361844,89.7067636 C84.9327919,89.5088608 81.8979333,89.346821 77.8960769,89.2366267 Z M87.6166868,89.8530191 L87.815812,88.873045 L86.8396053,89.0898873 C86.8239484,88.9980824 86.8239484,88.9980824 86.8245644,88.996122 C86.8268561,89.0382901 86.8322488,89.0884831 86.8429808,89.1448236 C86.850381,89.1836731 86.86032,89.2254455 86.8735315,89.2695255 C86.974982,89.5412283 87.0531299,89.639101 87.183674,89.7697101 C87.1795508,89.764968 87.1686993,89.7524456 87.1442547,89.7242369 L87.925182,89.099615 L86.9867121,88.754254 L86.6361844,89.7067636 C87.039135,89.7535791 87.3675773,89.8024014 87.6166868,89.8530191 Z M89.0584843,88.9155464 L82.7790728,105.978964 L64.1900882,101.507589 L77.0252525,87.2129115 L77.4868703,87.2249446 C82.8159436,87.3638585 86.5109371,87.5874665 88.0149372,87.8930709 L88.651225,88.0223611 L88.7693219,88.554024 L89.0584843,88.9155464 Z M88.7061093,88.4749931 C88.6295994,88.3864988 88.6295994,88.3864988 88.5984813,88.3560903 C88.6590357,88.4166552 88.7094686,88.4797103 88.7647208,88.6232981 C88.8105973,88.7662739 88.8194515,88.8317918 88.8185395,88.8409984 C88.8155882,88.7934872 88.8155882,88.7934872 88.7924261,88.6580439 L88.7693219,88.554024 L88.7061093,88.4749931 Z M103.286675,81.6250649 L97.107537,67.834333 L89.4336607,76.3809877 C89.5252693,81.0821024 89.6703277,84.5944134 89.8618191,86.564665 L103.286675,81.6250649 Z M88.0481976,88.1158902 C87.7454917,86.4643632 87.5424544,82.259372 87.4265149,76.0246676 L87.4191938,75.6309724 L97.674747,64.209017 L105.987809,82.7622851 L88.2623479,89.2842685 L88.0481976,88.1158902 Z M107.826302,63.365605 C107.668308,59.1256212 106.889683,54.9863032 105.528366,51.0455256 L100.023157,63.365605 L107.826302,63.365605 Z M105.645406,45.8812884 L106.531223,48.0411515 C108.639329,53.1812889 109.773509,58.689426 109.852016,64.3517416 L109.866073,65.365605 L96.9388673,65.365605 L105.645406,45.8812884 Z M102.828185,44.8664117 C98.8308839,37.3864511 92.6809027,31.2247188 85.2091887,27.2126096 L89.9644571,40.1313644 L102.828185,44.8664117 Z M89.721853,39.9370857 L89.121812,40.737055 L90.0602558,40.3916229 L89.9644571,40.1313644 L89.6547462,40.017362 L89.309312,40.955805 L90.2037065,40.508526 C90.1412477,40.3836313 90.069156,40.2705042 89.97597,40.1626416 C89.9658785,40.1509608 89.9555396,40.1393416 89.9449388,40.127776 C89.9430606,40.1258706 89.941199,40.1239868 89.9393535,40.1221239 C89.8502912,40.0322256 89.7987599,39.9912756 89.7347549,39.9459859 C89.713692,39.9311536 89.713692,39.9311536 89.721853,39.9370857 Z M88.2854243,41.3597453 L81.624651,23.2642584 L83.8200244,24.2829537 C93.4819507,28.7662725 101.286364,36.5842398 105.75199,46.2548203 L106.763977,48.4463385 L88.5921092,41.7574026 L88.4579661,41.4891655 L88.2854243,41.3597453 Z M44.7669693,27.2267278 C37.285846,31.2496801 31.1329062,37.4297041 27.139876,44.9312567 L39.9891401,40.2011394 L44.7669693,27.2267278 Z M40.664212,41.018235 L40.3187524,40.0798014 L39.9892137,40.2011123 L39.9133169,40.4070408 L40.851712,40.752605 L40.1873877,40.0051605 C40.183563,40.0085268 40.183563,40.0085268 40.1702821,40.0200312 C40.0987509,40.0820567 40.048053,40.1303059 39.9892137,40.2011123 C39.9825875,40.2090881 39.9759757,40.2172027 39.9692247,40.2256431 C39.8455261,40.3962669 39.7941001,40.5009572 39.7357572,40.6467897 L40.664212,41.018235 Z M41.4273456,41.802913 L23.213943,48.5076962 L24.2207275,46.3191164 C28.679683,36.6260995 36.4853665,28.7887978 46.1568443,24.2951451 L48.3537063,23.2744185 L41.7034572,41.3334708 L41.5664308,41.4552591 L41.4273456,41.802913 Z M39.9933804,89.8012083 C39.8739205,89.652207 39.7845028,89.498942 39.7202949,89.3338193 L40.652312,88.971405 L40.3068611,89.9098418 L27.1385571,85.0624166 C31.1402882,92.5850128 37.3152951,98.7788947 44.8234426,102.802954 L39.9717071,89.6255153 L40.910122,89.280005 L40.3860152,90.1316576 C40.2510245,90.0485843 40.164993,89.9885097 40.0672135,89.8849132 C40.043575,89.8598685 40.0192499,89.8322801 39.9933804,89.8012083 Z M41.7289644,88.6097327 L48.4066654,106.74654 L46.2125818,105.730418 C36.5140674,101.238851 28.6855837,93.388649 24.2202226,83.6746738 L23.2144435,81.4866954 L41.420913,88.1887353 L41.5392097,88.4929577 L41.7289644,88.6097327 Z M89.8956794,89.9229031 C89.8054252,90.0105844 89.7067918,90.0827746 89.5890578,90.1571237 L89.055112,89.311605 L89.9935401,89.6570795 L85.1488973,102.816803 C92.6483254,98.8024155 98.8177874,92.6300076 102.824305,85.1313588 L89.6467907,89.9843711 L89.301202,89.045985 L90.1957055,89.4930459 C90.2205889,89.439225 90.2205889,89.439225 90.2229274,89.4324277 C90.1886156,89.5215715 90.1886156,89.5215715 90.086946,89.6951856 C90.0394577,89.7634472 89.9918305,89.8225156 89.9421079,89.8756117 C89.9268479,89.891907 89.9113906,89.9076398 89.8956794,89.9229031 Z M88.5838242,88.2445213 L106.760009,81.5505992 L105.748118,83.7424367 C101.274787,93.4320306 93.4511947,101.258948 83.7601158,105.742839 L81.5669023,106.7576 L88.2340131,88.6474237 L88.4509174,88.5104485 L88.5838242,88.2445213 Z M88.3543553,88.7193545 L88.3578197,88.7103658 C88.3596853,88.7054785 88.3612776,88.7013071 88.3627503,88.6975013 C88.3595701,88.7046931 88.3573999,88.7107945 88.3543553,88.7193545 Z M88.5211662,88.4660863 C88.5196147,88.4670661 88.4846055,88.496321 88.4338925,88.5695687 C88.3847555,88.6550904 88.3706426,88.6796534 88.3627503,88.6975013 C88.3713314,88.6753256 88.3758501,88.6655642 88.4066985,88.5989241 L88.4509174,88.5104485 L88.5211662,88.4660863 Z" id="Page-1" fill="#28353D" fill-rule="nonzero"></path>
        </g>
    </g>
</svg>