<?xml version="1.0" encoding="UTF-8"?>
<svg width="130px" height="130px" viewBox="0 0 130 130" version="1.1" xmlns="http://www.w3.org/2000/svg" xmlns:xlink="http://www.w3.org/1999/xlink">
    <!-- Generator: Sketch 45.1 (43504) - http://www.bohemiancoding.com/sketch -->
    <title>crystal4</title>
    <desc>Created with Sketch.</desc>
    <defs></defs>
    <g id="Page-1" stroke="none" stroke-width="1" fill="none" fill-rule="evenodd">
        <g id="crystal4">
            <rect id="Rectangle-Copy-3" fill="#FFFFFF" x="0" y="0" width="130" height="130"></rect>
            <path d="M65.3638575,20.4109579 C74.5685341,24.4277966 85.1947313,36.87251 94.9012262,54.6553938 C100.031141,64.0584007 104.413903,74.0862501 107.431214,83.2657187 C109.313525,89.0371373 110.5366,94.177642 110.994008,98.3372937 C110.944521,98.8067152 110.944521,98.8067152 110.921438,98.8447212 C110.882919,98.9516947 110.882919,98.9516947 110.792563,99.2026414 L110.582625,99.5466033 C104.577112,105.981841 86.0793837,109.624553 64.43706,109.637728 C61.5158944,109.637728 58.6205722,109.566699 55.8015887,109.425559 C37.0189638,108.493334 23.4459976,104.846863 19.3091798,99.4252091 C19.0743919,99.1121758 18.9654078,98.7204278 19.009674,98.3331792 C19.4588556,94.2443497 20.6526591,89.1587895 22.5608457,83.0210005 C22.6160765,82.8138803 22.7125066,82.6278643 22.8406707,82.46781 C25.7801337,73.6425982 30.0908659,63.8425836 35.1027051,54.659353 C44.5326066,37.3807011 54.8459805,25.13626 63.6458448,20.8495411 C63.8118174,20.6699566 64.0193413,20.5307401 64.25463,20.447718 C64.4765429,20.3678239 64.7020415,20.3469415 64.9221705,20.3726852 C65.0427263,20.3700646 65.1777546,20.3835911 65.3638575,20.4109579 Z M110,98.446598 L109.005992,98.5559023 C108.520332,94.3605346 107.33816,89.4305755 105.530505,83.8880536 C102.552564,74.8283666 98.2184143,64.9117441 93.1456143,55.6134265 C83.7104039,38.3275523 73.4295503,26.2361366 65.0232881,22.4086678 C64.9144914,22.3597423 64.9795187,22.0236257 65.21837,21.400318 L65.076862,22.362616 L64.64378,22.3509244 C64.8969946,22.3414222 64.9115325,22.3368682 64.9261641,22.3315975 C65.1301348,22.1931015 65.1578276,22.1564008 65.1788471,22.1169884 L65.0441869,22.3694816 L64.7242208,22.5503142 C56.3477819,26.5140673 46.1831484,38.5312566 36.8582728,55.6174667 C31.8618775,64.7723995 27.5700425,74.5473867 24.6677978,83.3117621 L24.5727923,83.5986655 C22.6115703,89.6110565 21.465327,94.4771446 21.0187436,98.3644604 C24.8155572,103.063922 37.8806691,106.53364 55.901165,107.428039 C58.6869422,107.567516 61.5489294,107.637728 64.4364512,107.637728 C85.3475002,107.624998 103.334072,104.117247 108.980345,98.3288538 C109.03191,98.2754659 109.322305,98.4539573 109.85153,98.864328 L108.910496,98.5260146 C109.007137,98.2576128 109.015788,98.2335893 109.038512,98.1704873 C109.018982,98.3252581 109.010503,98.379459 109,98.446598 L110,98.446598 Z M25.1633168,85.2603729 C24.2418845,88.1644183 23.5027333,90.8946992 22.960693,93.3964653 L28.8810155,86.1698946 L25.1633168,85.2603729 Z M19.7651229,100.453019 L20.2882733,96.8837276 C20.8425782,93.1018782 21.9507168,88.6502784 23.5457526,83.7577874 L23.8332334,82.8759907 L32.4399844,84.9816014 L19.7651229,100.453019 Z M48.8668779,38.8128381 C45.8269414,42.8610675 42.79475,47.5010101 39.8796529,52.5355993 L54.6624855,47.0371098 L56.3067064,42.2947205 L48.8668779,38.8128381 Z M56.2433145,48.5829862 L35.4551883,56.3151509 L36.7786959,53.9437933 C40.300427,47.6338306 44.0251594,41.8559571 47.7629069,36.9575194 L48.2518138,36.3167913 L58.7866935,41.2471755 L56.2433145,48.5829862 Z M90.1304845,52.5516768 C87.2192376,47.5176117 84.1788264,42.8647015 81.1247105,38.7971135 L73.4898414,42.3693719 L75.0760893,46.9514241 L90.1304845,52.5516768 Z M71.0105586,41.3213041 L81.7400192,36.3011255 L82.2288616,36.9419194 C85.9837398,41.8639619 89.717551,47.6565377 93.2293662,53.9597427 L94.5496859,56.3295273 L73.4947107,48.4970519 L71.0105586,41.3213041 Z M53.3605525,50.7990901 L38.2740804,56.4114736 L34.0672292,79.8311272 L50.0777992,60.2754952 L53.3605525,50.7990901 Z M30.7375707,87.0551688 L36.5073195,54.9348224 L56.6388474,47.4456059 L51.8510008,61.2668008 L30.7375707,87.0551688 Z M55.7166346,53.3872856 L59.7949082,48.4066624 L57.094686,49.4110444 L55.7166346,53.3872856 Z M66.0244918,43.9556136 L50.1495654,63.3429904 L55.5137139,47.8652316 L66.0244918,43.9556136 Z M34.4534273,84.2136251 L41.3440113,85.4938057 L47.1663731,68.6852426 L34.4534273,84.2136251 Z M42.6705886,87.7744904 L30.7643727,85.5624709 L52.7310269,58.7310335 L42.6705886,87.7744904 Z M76.9811882,61.848325 L64.7745696,47.1701876 L52.8001053,61.7975709 L44.3951604,86.059333 C51.0948659,87.3063731 56.1656159,88.250154 59.6074073,88.8906751 C61.4247737,89.228889 62.7879575,89.4825487 63.6969507,89.6516527 C64.3219067,89.7679084 64.3219067,89.7679084 64.7197146,89.8418765 C64.8086809,89.8576033 64.8724785,89.868881 64.9147039,89.876764 C64.9341587,89.8870773 64.9221107,90.2243053 64.87856,90.888448 L64.6495697,89.9150193 C64.7369143,89.8944723 64.8253034,89.8816095 64.9147039,89.876764 C64.9605118,89.8742813 65.0065852,89.8739034 65.0529198,89.8756753 C65.1293993,89.8785999 65.2065903,89.8873813 65.2844726,89.902221 L65.0973,90.884548 L64.9145974,89.9013798 L85.3809984,86.0980994 L76.9811882,61.848325 Z M65.1075503,91.8618767 L64.997952,91.8745941 C65.0350006,91.8744056 65.0725021,91.8701215 65.1075503,91.8618767 Z M64.3541751,91.808188 C63.9561843,91.7341859 63.9561843,91.7341859 63.3311579,91.6179171 C62.4221137,91.4488036 61.0588929,91.195137 59.2414877,90.8569159 C55.6067033,90.1804785 50.1551882,89.1658243 42.8869385,87.8129525 L41.7446997,87.6003425 L51.0268947,60.8063051 L64.7624304,44.0276884 L78.7518117,60.849551 L88.0316015,87.6397766 L65.0949858,91.902098 C64.6084039,91.8582897 64.6084039,91.8582897 64.3541751,91.808188 Z M64.997952,91.8745941 C64.9678593,91.8747473 64.9380653,91.8721983 64.9101273,91.866875 L64.9685466,91.8780062 L64.997952,91.8745941 Z M74.1297178,53.6125119 L72.6465814,49.3284523 L69.6364227,48.2080657 L74.1297178,53.6125119 Z M74.2280186,47.7830237 L79.6120821,63.3349642 L63.3005773,43.7158103 L74.2280186,47.7830237 Z M88.4365142,85.5293202 L95.5743502,84.2016068 L82.5543497,68.5489371 L88.4365142,85.5293202 Z M99.2926497,85.5442692 L87.1100858,87.8103558 L77.0706503,58.8289389 L99.2926497,85.5442692 Z M43.3817236,88.9976572 L41.7899759,93.5931477 L55.8205431,91.3082185 L43.3817236,88.9976572 Z M38.803044,96.1059283 L42.0550963,86.7170188 L67.4684769,91.4376575 L38.803044,96.1059283 Z M74.0489625,91.3276837 L87.979415,93.5969063 L86.3991092,89.0328242 L74.0489625,91.3276837 Z M90.9659849,96.1097697 L62.4044375,91.4571923 L87.7258907,86.7520518 L90.9659849,96.1097697 Z M91.4236895,94.1487102 L105.685346,96.3590388 L97.8250557,86.9084445 L89.4542588,88.4639692 L91.4236895,94.1487102 Z M86.8035412,86.9223068 L98.6127443,84.7278315 L110.604054,99.1452372 L89.9279105,95.9407659 L86.8035412,86.9223068 Z M95.8807656,79.7649347 L91.6833807,56.4118705 L76.3780301,50.717607 L79.7020801,60.3113071 L95.8807656,79.7649347 Z M73.0993698,47.363869 L93.4500192,54.9352055 L99.1902343,86.8721413 L77.9315198,61.3101689 L73.0993698,47.363869 Z M70.6887678,43.6831802 L68.7379248,44.5960414 L71.3410185,45.5640289 L70.6887678,43.6831802 Z M63.5676751,44.8072346 L71.8512321,40.9310958 L74.6207814,48.9174471 L63.5676751,44.8072346 Z M69.6785697,40.7634126 L64.8832298,26.9205556 L60.1152377,40.6853374 L64.9808563,42.9609535 L69.6785697,40.7634126 Z M57.6355623,41.7335386 L64.8831701,20.8103204 L72.1582303,41.8114634 L64.9809436,45.1689226 L57.6355623,41.7335386 Z M59.1052251,43.601854 L58.3969941,45.6466825 L61.225265,44.5952867 L59.1052251,43.601854 Z M55.1194058,48.9988336 L57.9423748,40.848262 L66.3927349,44.8080293 L55.1194058,48.9988336 Z M33.786374,64.020155 C30.7728987,70.2224399 28.1525715,76.493833 26.1390421,82.3332081 L30.3138239,83.3528156 L33.786374,64.020155 Z M23.5464509,83.7588037 L23.8924224,82.7274277 C26.617218,74.6045367 30.5383744,65.6025385 35.0866509,57.0528013 L38.080844,51.4243912 L31.9061761,85.8005004 L23.5464509,83.7588037 Z M24.5170904,96.3484306 L38.3416834,94.151789 L40.323767,88.4294965 L32.231626,86.9257188 L24.5170904,96.3484306 Z M42.9743529,86.8878195 L39.8392366,95.938927 L19.6398375,99.1484855 L31.4336939,84.7431972 L42.9743529,86.8878195 Z M44.4213217,96.2790726 L64.5453143,106.3868 L85.2637961,96.2650746 C78.9199278,95.2312711 74.0435592,94.4376018 70.6347384,93.8840743 C68.6624792,93.5638171 67.1815699,93.3239616 66.1921585,93.1645318 C65.697936,93.0848947 65.3265244,93.0253533 65.0782142,92.9859532 C64.9481914,92.9653804 64.9174501,92.9605163 64.8626214,92.9519843 L44.4213217,96.2790726 Z M64.695011,90.9529464 C65.0689868,90.9510839 65.0689868,90.9510839 65.1052251,90.9656868 C65.218737,90.9833057 65.218737,90.9833057 65.3916394,91.0106647 C65.6418568,91.0503675 66.0146556,91.1101313 66.5103265,91.1900017 C67.5007018,91.3495869 68.9823107,91.5895556 70.9553015,91.9099317 C74.9007938,92.5506043 80.8116828,93.5128846 88.6880433,94.7967846 L91.7904189,95.3024927 L64.5330057,108.618722 L38.0089982,95.2964434 L64.695011,90.9529464 Z M86.4165764,106.075751 C86.4142984,106.064635 86.4124204,106.055476 86.4110121,106.04648 C86.411762,106.057991 86.4137837,106.065449 86.4165764,106.075751 Z M87.9003476,98.3977222 L71.4598926,106.429867 C76.7738804,106.222067 81.8968935,105.776927 86.5576478,105.105543 L87.9003476,98.3977222 Z M88.4043502,105.854945 C88.4066876,105.866364 88.408605,105.875726 88.4099674,105.88522 C88.409281,105.873084 88.4072257,105.865523 88.4043502,105.854945 Z M88.3805513,106.233483 L88.2186839,106.880373 L87.5592749,106.979608 C81.3035317,107.921039 74.2035361,108.45242 66.9037243,108.549255 L62.4446824,108.608406 L90.6549723,94.8259938 L90.2582087,96.8081338 L88.3946415,106.112493 C88.3907098,106.146671 88.3860393,106.186584 88.3805513,106.233483 Z M88.4099674,105.88522 C88.4116876,105.915633 88.4048095,105.974774 88.3806937,106.182131 L88.3946415,106.112493 C88.4123773,105.958317 88.415079,105.920839 88.4099674,105.88522 Z M89.7934218,104.588145 C96.8011849,103.358721 102.293973,101.619658 105.76709,99.4801751 L91.2656362,97.2347913 L89.7934218,104.588145 Z M110.578097,98.2012714 L108.968479,99.6135256 C105.276654,102.852677 98.2018064,105.269833 88.6869632,106.802219 L87.2645886,107.031296 L89.6802837,94.9654847 L110.578097,98.2012714 Z M106.979197,93.104795 C106.453949,90.7331668 105.754522,88.1598022 104.89359,85.4307815 L101.242178,86.2069483 L106.979197,93.104795 Z M106.24414,83.099015 L106.521884,83.9563441 C108.037773,88.635546 109.106677,92.9050925 109.668367,96.5617096 L110.215513,100.123642 L97.5865419,84.9393277 L106.24414,83.099015 Z M103.919178,82.4965787 C101.882986,76.5686414 99.2199179,70.1928348 96.1529746,63.8930333 L99.6574714,83.4036095 L103.919178,82.4965787 Z M91.8642912,51.3294466 L94.8554674,56.9423395 C99.4645787,65.5912613 103.433804,74.7106582 106.175507,82.9240026 L106.529921,83.9857233 L98.0540485,85.7896665 L91.8642912,51.3294466 Z M79.1927146,36.3117261 C75.127192,31.2490587 71.1682987,27.4112598 67.477245,25.0154135 L72.4800054,39.4541901 L79.1927146,36.3117261 Z M63.9077245,20.8221863 L66.1035736,21.9201108 C70.9610145,24.3488313 76.1947121,29.2147087 81.5492625,36.065738 L82.322377,37.054921 L71.3171145,42.2068859 L63.9077245,20.8221863 Z M62.222899,25.2155147 C58.6099545,27.6277818 54.7484184,31.4005211 50.7987494,36.3235237 L57.3173016,39.3756921 L62.222899,25.2155147 Z M47.6704522,37.0671491 L48.4425144,36.0781771 C53.6783626,29.3713258 58.8210089,24.5536885 63.6020562,22.0719841 L65.8290123,20.916035 L58.4802184,42.1285839 L47.6704522,37.0671491 Z M24.03081,99.5365124 C27.1927957,101.602842 32.633749,103.380079 39.7508988,104.627282 L38.278877,97.2729966 L24.03081,99.5365124 Z M42.2792669,107.068839 L40.857776,106.84082 C31.1135754,105.277765 24.0882126,102.76971 20.9300337,99.6113213 L19.5431649,98.2243603 L39.8628429,94.9962794 L42.2792669,107.068839 Z M43.0863149,105.664347 L43.1053943,105.742962 L43.1011596,105.721815 C43.0967945,105.702924 43.0918626,105.683746 43.0863149,105.664347 Z M55.9589733,106.354792 C56.5686438,106.384588 57.1797153,106.411244 57.7916297,106.434724 L41.6172822,98.3115307 L42.9840095,105.136783 C47.0302902,105.717168 51.3849676,106.129141 55.9589733,106.354792 Z M38.8512377,94.6842853 L66.5682247,108.604503 L62.2254408,108.548828 C60.1024817,108.521611 57.9736347,108.455639 55.8608865,108.352385 C50.9524158,108.110234 46.2894042,107.656009 41.9771369,107.010584 L41.1344792,106.884462 L41.1253084,106.040688 L38.8512377,94.6842853 Z M41.1634051,106.214273 L41.1451673,106.139126 C41.1500708,106.163487 41.1560902,106.188695 41.1634051,106.214273 Z M41.1307876,105.9036 C41.1275814,105.934501 41.1275814,105.934501 41.125219,106.032468 L41.1253084,106.040688 L41.1443257,106.135658 L41.1451673,106.139126 C41.1227021,106.027516 41.1236601,105.933688 41.1307876,105.9036 Z" id="Page-1" fill="#FFA400" fill-rule="nonzero"></path>
        </g>
    </g>
</svg>