<?xml version="1.0" encoding="UTF-8"?>
<svg width="130px" height="130px" viewBox="0 0 130 130" version="1.1" xmlns="http://www.w3.org/2000/svg" xmlns:xlink="http://www.w3.org/1999/xlink">
    <!-- Generator: Sketch 45.1 (43504) - http://www.bohemiancoding.com/sketch -->
    <title>crystal3</title>
    <desc>Created with Sketch.</desc>
    <defs></defs>
    <g id="Page-1" stroke="none" stroke-width="1" fill="none" fill-rule="evenodd">
        <g id="crystal3">
            <rect id="Rectangle-Copy-2" fill="#FFFFFF" x="0" y="0" width="130" height="130"></rect>
            <path d="M110.638316,47.917358 C110.639529,47.9190582 110.640735,47.9207495 110.641936,47.922432 L110.638316,47.917358 Z M109.933794,48.6270393 L110.933794,48.6270393 L110.762039,48.2123865 L109.933794,48.6270393 Z M110.923425,48.4397832 C110.939615,48.5078836 110.956701,48.5992678 110.980781,48.7432186 C110.989881,49.1076572 110.960556,49.207563 110.902171,49.3537887 C110.880459,49.4067902 110.836542,49.5161 110.770419,49.6817182 C76.382967,94.1042954 66.1064415,107.369715 65.9537354,107.506055 C65.6660396,107.700595 65.5426642,107.745072 65.2592895,107.820341 C64.6449398,107.853854 64.3828973,107.735717 64.0083237,107.460639 L63.8094198,107.266692 C48.9761449,88.1012099 37.8505372,73.7261211 30.4325957,64.1414241 C26.7236215,59.3490712 23.9415643,55.7543168 22.086422,53.3571582 C20.8109257,51.7089836 20.8109257,51.7089836 19.9988728,50.6595889 C19.4253546,49.9190677 19.4253546,49.9190677 19.2605435,49.7011631 C19.1630317,49.563422 19.1220439,49.4466971 19.039209,49.129982 C18.9947336,48.7910286 19.016456,48.6625022 19.0615397,48.5103428 C19.0683302,48.4874248 19.1025034,48.3788916 19.1640594,48.1847433 C31.8271487,27.7162941 35.4317285,21.9103414 35.6946725,21.6669475 C35.8519637,21.5370637 36.0010023,21.4733416 36.3264663,21.3761949 L36.6124838,21.3344193 L65.0041694,21.3344195 C88.5409853,21.3505572 93.6597275,21.3617319 93.9175539,21.4383859 C94.1691063,21.5528862 94.1691063,21.5528862 94.1914749,21.5675759 C94.2891785,21.6329343 94.5037905,21.8432172 94.5037342,21.8431651 L94.6744686,22.0506158 C100.043109,30.7314991 104.069917,37.2428138 106.754892,41.5845626 C108.097385,43.7554458 109.10442,45.3839364 109.775999,46.4700397 C110.237758,47.2168292 110.237758,47.2168292 110.531811,47.6924611 C110.734836,48.0196362 110.734836,48.0196362 110.827992,48.1793678 C110.886687,48.2784845 110.894003,48.3160265 110.923425,48.4397832 Z M110.641936,47.922432 L110.762039,48.2123865 L110.823811,48.1814607 C110.787173,48.124924 110.73167,48.0481903 110.641936,47.922432 Z M65.1921438,105.848631 C65.259693,105.898238 65.2903617,105.917546 65.2768504,105.911455 C65.2445734,105.896904 65.208974,105.884895 65.1722815,105.875678 L65.1921438,105.848631 Z M36.8985012,23.2926437 L36.8916631,23.2697343 C36.844813,23.3055362 36.8370523,23.3109854 36.8985012,23.2926437 Z M65.0025738,105.853854 C65.0562679,105.853854 65.1155797,105.861434 65.1722815,105.875678 L65.0025738,106.106769 L65.0025738,105.853854 Z M109.226687,49.3341461 L109.039596,49.0747108 C108.975676,48.9794767 108.941533,48.924144 108.89106,48.842222 C108.536658,48.2686176 108.536658,48.2686176 108.074929,47.5218763 C107.403371,46.435808 106.396352,44.8073427 105.053876,42.636486 C102.395412,38.3376081 98.4214706,31.9117758 93.1320536,23.3589918 C93.0127926,23.1661513 92.9931448,23.1343816 92.973479,23.1025827 L93.8239738,22.5765993 L93.1442133,23.3100335 C93.1140381,23.2651641 93.2768249,22.9607927 93.6325738,22.3969193 L93.3475936,23.3554527 C91.3191612,23.3703641 78.3644258,23.3435802 65.0034838,23.3344193 L36.9082917,23.3344193 C36.0288899,24.7615421 29.2935306,35.6135484 21.1146767,48.8332212 C20.9710775,49.0653274 20.9511914,49.0974708 20.9312969,49.1296279 L20.0808858,48.6035093 L21.0353654,48.9017854 C21.0167304,48.8745658 20.6738308,48.8662871 20.0066668,48.8769493 L20.9741245,48.6239166 C21.2035495,48.9478777 21.3446699,49.1304212 21.5806178,49.435627 C22.3926224,50.4849593 22.3926224,50.4849593 23.6681001,52.1331099 C25.5232289,54.530251 28.3052763,58.1249927 32.0142403,62.9173325 C39.3660623,72.4165967 50.3597572,86.6212462 64.995324,105.53128 C65.1269374,105.701332 65.2588453,105.871765 65.3910477,106.042579 L64.6002338,106.654635 L65.0025738,106.106769 L65.0025738,106.853854 L64.745858,105.887367 C64.8195817,105.867785 65.0002069,106.158697 65.2877338,106.760104 L64.6217321,106.014154 C64.6211763,106.01465 64.7481642,105.850525 64.995324,105.53128 C67.7930848,101.917537 85.9890012,78.4275802 108.89106,48.842222 C109.050052,48.636832 109.076105,48.6031764 109.102164,48.5695131 L109.892924,49.1816393 L108.963235,48.8132932 C108.984097,48.8692097 109.327846,48.9008451 109.994484,48.9081993 L109.008187,49.07318 C109.072991,49.1167353 109.126642,49.1905052 109.225284,49.330759 C109.229292,49.3367428 109.229117,49.3365692 109.112231,49.0557762 C109.014349,48.8206018 109.007699,48.8046232 109.000844,48.7881497 C108.975892,48.7281947 109.051173,48.9101935 109.226687,49.3341461 Z M67.7502306,24.3500393 L81.3130064,45.7096424 L86.7429897,33.79844 L91.047696,24.3500393 L67.7502306,24.3500393 Z M93.5122649,23.7644915 L88.562905,34.6278423 L81.6023811,49.8964362 L64.1111569,22.3500393 L94.1566915,22.3500393 L93.5122649,23.7644915 Z M65.0051667,25.6578957 L51.2265248,47.3620393 L78.7829252,47.3620393 L65.0051667,25.6578957 Z M47.5878627,49.3620393 L65.0052208,21.9261828 L82.4214623,49.3620393 L47.5878627,49.3620393 Z M38.9620501,24.3505666 L43.2741353,33.8107091 L48.7004151,45.7107686 L62.2599177,24.3500775 L38.9620501,24.3505666 Z M47.6458726,48.2186657 L41.4543333,34.6403602 L35.8524774,22.3506319 L65.8984698,22.3500011 L64.9234574,23.8859674 L49.5432556,48.1148559 L48.4091696,49.8926081 L47.6458726,48.2186657 Z M35.1246758,28.1221434 L23.2207921,47.3616821 L46.133734,47.3582707 L45.9186921,46.8861634 L36.4138695,26.0376803 L35.1246758,28.1221434 Z M33.4238039,27.0699862 L36.681318,21.8029983 L37.4574954,23.5055152 L47.7386349,46.0568213 L49.2422135,49.3578079 L19.6311594,49.3622165 L33.4238039,27.0699862 Z M61.3756177,99.1906979 L47.3411939,50.3771393 L23.5898743,50.3771393 L61.3756177,99.1906979 Z M48.8471937,48.3771393 L66.1807699,108.665581 L19.5125153,48.3771393 L48.8471937,48.3771393 Z M79.5271001,50.3771393 L50.4842179,50.3771393 L65.0042847,100.879449 L79.5271001,50.3771393 Z M47.8281696,48.3771393 L82.1832874,48.3771393 L65.0041028,108.11683 L47.8281696,48.3771393 Z M106.414426,50.3773293 L82.6630812,50.3773293 L68.7622303,98.7234028 L68.6273024,99.1931477 L106.414426,50.3773293 Z M65.2657572,103.651756 L66.8400316,98.170997 L81.1571063,48.3773293 L110.491761,48.3773293 L63.8264852,108.662511 L65.2657572,103.651756 Z M106.784095,47.3620156 L95.1809719,28.6030013 L93.5948547,26.0382345 L83.9696154,47.1504667 L83.8735825,47.3618411 L106.784095,47.3620156 Z M81.4104521,47.9481918 L82.1492749,46.321999 L93.3274927,21.803424 L94.3116756,23.3948573 L96.8819336,27.5509894 L110.372853,49.362043 L80.768205,49.3618175 L81.4104521,47.9481918 Z" id="Page-1" fill="#009EFF" fill-rule="nonzero"></path>
        </g>
    </g>
</svg>