<?xml version="1.0" encoding="UTF-8"?>
<svg width="130px" height="130px" viewBox="0 0 130 130" version="1.1" xmlns="http://www.w3.org/2000/svg" xmlns:xlink="http://www.w3.org/1999/xlink">
    <!-- Generator: Sketch 45.1 (43504) - http://www.bohemiancoding.com/sketch -->
    <title>crystal5</title>
    <desc>Created with Sketch.</desc>
    <defs></defs>
    <g id="Page-1" stroke="none" stroke-width="1" fill="none" fill-rule="evenodd">
        <g id="crystal5">
            <rect id="Rectangle-Copy-4" fill="#FFFFFF" x="0" y="0" width="130" height="130"></rect>
            <path d="M58.94867,110.985051 C56.1496205,110.985051 53.3606015,110.622839 50.6404649,109.904063 L50.3593954,109.824264 C45.6749897,108.536794 41.3933272,106.220269 37.6771402,102.999257 C30.6741218,96.8713664 26.57766,87.9976708 26.57766,78.6136938 L26.57766,51.3796938 C26.57766,49.0477722 26.8307092,46.7422422 27.3354395,44.4302525 C28.697276,38.246108 31.8482127,32.612957 36.4121623,28.1544267 C40.1671769,24.5067793 44.7445103,21.8188886 49.8578744,20.3137579 C49.9223039,20.29505 49.9734323,20.2799381 50.0926424,20.2444975 C50.3418214,20.170414 50.4550585,20.1375382 50.6056139,20.0969198 C53.3251543,19.3716987 56.1304283,19.0045538 58.94918,19.0045538 L71.05118,19.0045538 C79.2442036,19.0045538 86.9347577,22.0743475 93.0031116,27.6139544 C99.5972102,33.7089912 103.42234,42.2452978 103.42234,51.3753038 L103.41758,78.6065438 C103.41758,81.6918797 102.972439,84.7307008 102.083421,87.7851226 C98.9021308,98.5223694 90.3598969,106.942579 79.4733411,109.864568 L79.2323479,109.933146 C76.5633492,110.629572 73.8145343,110.981144 71.04627,110.981144 L64.9987989,110.981144 C64.8776466,110.999227 64.7515948,110.999748 64.5961975,110.985051 L58.94867,110.985051 Z M71.04627,108.981144 C73.6444184,108.981144 76.223533,108.651276 78.7051489,108.00402 L78.9393806,107.937231 C89.1654739,105.192387 97.1808898,97.2914697 100.164462,87.2215847 C100.99997,84.3509727 101.41758,81.500093 101.41758,78.606369 L101.42234,51.375129 C101.42234,42.8096255 97.8347474,34.8034161 91.650143,29.0868554 C85.9498152,23.8832323 78.7380496,21.0045538 71.05118,21.0045538 L58.94918,21.0045538 C56.3043004,21.0045538 53.6722696,21.3490252 51.1237839,22.0286266 C50.9978348,22.0626102 50.8956109,22.0922886 50.662607,22.161563 C50.5413427,22.197618 50.4854505,22.2141378 50.4190948,22.233398 C45.6223075,23.6453502 41.3290106,26.1664497 37.8077376,29.5870332 C33.5229964,33.7728095 30.5662193,39.0588479 29.2890298,44.8585997 C28.8150202,47.0298765 28.57766,49.1924639 28.57766,51.3796938 L28.57766,78.6136938 C28.57766,87.4161391 32.4216489,95.7429315 38.9906256,101.491035 C42.480085,104.515517 46.4960595,106.688295 50.8974151,107.898007 L51.1688867,107.97522 C53.7047341,108.645138 56.3220517,108.985051 58.94867,108.985051 L64.64787,108.985051 L71.04627,108.981144 Z M99.3307271,43.4188456 C98.0563511,38.9033455 95.7137079,34.7694429 92.5234296,31.3494494 L88.0923133,43.8851966 L99.3307271,43.4188456 Z M91.6889689,27.70903 L92.807878,28.7876855 C97.1293156,32.9536561 100.189744,38.2729194 101.582848,44.1354323 L101.863261,45.3154764 L85.2213667,46.006051 L91.6889689,27.70903 Z M89.6477505,30.5224255 L78.1288354,32.5338215 L85.466592,42.3383947 L89.6477505,30.5224255 Z M74.5756446,31.1240062 L92.6747295,27.9636021 L86.105088,46.529433 L74.5756446,31.1240062 Z M87.4580605,49.7621083 L87.5931825,81.1330903 L99.7673238,65.1894366 L87.4580605,49.7621083 Z M85.6184975,87.0147374 L85.4332995,44.0177194 L102.304356,65.162391 L85.6184975,87.0147374 Z M52.2318683,71.9396975 L45.8103382,84.2211342 L51.5566011,84.6794302 L52.2318683,71.9396975 Z M42.6367418,85.9743734 L54.7152117,62.8738101 L53.4450789,86.8363975 L42.6367418,85.9743734 Z M51.5878564,87.6752645 L46.6636229,87.2837265 L52.164353,94.4685643 L51.5878564,87.6752645 Z M42.3458971,84.9341011 L53.4372636,85.8160032 L54.735767,101.117263 L42.3458971,84.9341011 Z M52.3959544,65.1689012 L44.93056,50.8883326 L44.93056,79.4486916 L52.3959544,65.1689012 Z M42.93056,42.745495 L54.6527656,65.1689264 L42.93056,87.591136 L42.93056,42.745495 Z M45.8065657,46.1155973 L52.2290304,58.3967385 L51.5564074,45.6573458 L45.8065657,46.1155973 Z M54.7101896,67.4570691 L42.6326543,44.3622103 L53.4453126,43.5004619 L54.7101896,67.4570691 Z M51.5912746,42.6538159 L52.1568271,36.2834073 L46.759184,43.0390936 L51.5912746,42.6538159 Z M54.7356929,29.8516403 L53.4340654,44.5132317 L42.312936,45.3999541 L54.7356929,29.8516403 Z M55.5729299,65.0859682 L55.5776697,65.2492375 L54.5270471,85.1522774 L64.9965361,87.8619259 L75.0341235,85.1639051 C74.4714394,74.4941567 73.9826724,65.2423264 73.983759,65.2521202 L73.9790558,65.0890266 L75.037483,45.0775497 L64.77836,41.391821 L54.519065,45.0776114 C55.0823835,55.7755102 55.5740442,65.095985 55.5729299,65.0859682 Z M52.4827433,44.440424 L52.4436564,43.6980757 L64.77836,39.2666666 L77.113237,43.698138 L75.9786258,65.1500101 C76.0220411,65.9247143 76.2742959,70.7020118 77.0739725,85.8668647 L77.1165949,86.675143 L65.0061839,89.9303218 L52.4436729,86.6789703 L53.5781044,65.1882518 C53.5346994,64.4130181 53.2830611,59.6402567 52.4827433,44.440424 Z M70.573799,33.3984495 L64.9684291,33.8784983 C64.8704811,33.8960601 64.7971861,33.8937939 64.6497315,33.8838167 L58.9822808,33.3984512 L64.778058,37.9093366 L70.573799,33.3984495 Z M77.130601,30.8295982 L64.778062,40.4437111 L52.4254392,30.8295965 L55.7891885,31.117671 L64.7769977,31.8875717 L77.130601,30.8295982 Z M64.7701026,31.8881622 C64.7806382,31.8883914 64.7909194,31.8889673 64.8016468,31.8896832 L64.7769977,31.8875717 L64.7701026,31.8881622 Z M67.8414168,39.3146263 L74.8930962,41.8474153 L74.2255846,34.3430338 L67.8414168,39.3146263 Z M77.1625238,44.7876323 L63.7462032,39.9688214 L75.8925354,30.5100138 L77.1625238,44.7876323 Z M55.3303259,34.3421788 L54.6627548,41.8472288 L61.7178188,39.3142141 L55.3303259,34.3421788 Z M52.3933652,44.7870189 L53.6632941,30.5100689 L65.8143012,39.9684335 L52.3933652,44.7870189 Z M54.6358546,88.2682781 L55.3164722,96.2797011 L61.9668139,90.1650869 L54.6358546,88.2682781 Z M53.6687878,100.511547 L52.4040854,85.6249695 L66.0262461,89.1495607 L53.6687878,100.511547 Z M58.6249428,97.2963625 L64.5431251,96.4678142 C64.6988158,96.4418713 64.856751,96.4418713 64.9931779,96.4647921 L70.7572802,97.3099185 L64.9539686,91.4776632 L58.6249428,97.2963625 Z M64.8461747,98.4445504 C64.8415661,98.4453618 64.8365067,98.4460701 64.8310584,98.4466673 L64.8461747,98.4445504 Z M64.6837793,98.4406191 C64.6911983,98.4418551 64.6986498,98.442943 64.706082,98.4438896 L64.6837793,98.4406191 Z M52.5476845,100.166806 L65.0156514,88.7041645 L76.4155398,100.160909 L73.4413421,99.7248355 L64.77682,98.4542627 L52.5476845,100.166806 Z M64.8310581,98.4466673 C64.7987642,98.4502068 64.7528063,98.4498407 64.706082,98.4438896 L64.77682,98.4542627 L64.8310581,98.4466673 Z M73.8745008,96.2066862 L74.0862137,94.4699545 L74.8366456,88.3120209 L67.879603,90.1795942 L73.8745008,96.2066862 Z M77.1804744,85.6120267 L76.0715216,94.7119311 L75.3613592,100.537561 L64.027517,89.1428534 L77.1804744,85.6120267 Z M77.1064373,94.3984222 L82.7936263,87.2949208 L77.9253267,87.6829563 L77.1064373,94.3984222 Z M87.2460937,84.9336868 L74.2692827,101.142185 L76.1377933,85.8190914 L87.2460937,84.9336868 Z M83.7492943,84.2221403 L77.3268296,71.9409991 L77.9994526,84.6803919 L83.7492943,84.2221403 Z M74.8456704,62.8806685 L86.9232057,85.9755273 L76.1105474,86.8372758 L74.8456704,62.8806685 Z M84.5997567,79.3963681 L84.4785242,51.4162935 L77.1621327,65.1727885 L84.5997567,79.3963681 Z M86.4440758,43.4613741 L86.6353433,87.6052995 L74.9010673,65.1648791 L86.4440758,43.4613741 Z M77.3199268,58.5094503 L83.6383386,46.6322299 L77.9951838,45.772591 L77.3199268,58.5094503 Z M86.7294614,45.0800377 L74.8446732,67.4208174 L76.1148162,43.4630766 L86.7294614,45.0800377 Z M77.4254008,36.5850985 L77.9736992,42.7477204 L82.5604276,43.4457585 L77.4254008,36.5850985 Z M87.0885724,46.1579091 L76.1207008,44.4887472 L74.8095992,29.7525692 L87.0885724,46.1579091 Z M88.4208641,27.7030121 C85.9283005,25.8688833 83.1598019,24.434908 80.2134913,23.4636571 L77.832985,29.5502368 L88.4208641,27.7030121 Z M79.0246385,21.0124855 L79.9047557,21.2722304 C84.1523112,22.5257917 88.0789431,24.6700945 91.4362676,27.5460855 L93.047222,28.9260803 L74.676015,32.1312309 L79.0246385,21.0124855 Z M71.0515,21.9930338 L68.2076899,21.9908843 L74.9194278,28.7883904 L77.3147001,22.6643712 C75.2713524,22.2197124 73.1756643,21.9930338 71.0515,21.9930338 Z M78.9150041,20.9896807 L80.006892,21.2718505 L75.6601722,32.3851572 L63.4187101,19.9872634 L71.0518805,19.9930338 C73.7282511,19.9930658 76.3636812,20.3303583 78.9150041,20.9896807 Z M64.6435436,22.6410291 L57.329405,30.2566368 L64.7779137,30.8917083 L72.1692368,30.2602327 L64.6435436,22.6410291 Z M64.8631246,32.8917141 L64.6930467,32.8917288 L52.984395,31.8934308 L64.6234564,19.7746386 L76.5899632,31.889835 L64.8631246,32.8917141 Z M58.9496,21.9969338 C56.7046191,21.9969338 54.4691181,22.253025 52.2766042,22.7622193 L54.6238445,28.7625955 L61.1220812,21.9969338 L58.9496,21.9969338 Z M58.9496,19.9969338 L65.8161188,19.9969338 L53.9003555,32.4030721 L49.6119748,21.4404553 L50.6357424,21.1205484 C50.6771876,21.1074494 50.6771876,21.1074494 50.7327802,21.0901184 C50.7961609,21.0709961 50.7961609,21.0709961 50.8604769,21.0539625 C53.4982258,20.3521694 56.2174257,19.9969338 58.9496,19.9969338 Z M49.3938375,23.5909024 C46.3049828,24.6499025 43.4335414,26.2159831 40.8751487,28.2171237 L51.7682969,29.6650328 L49.3938375,23.5909024 Z M36.2420298,29.6188832 L37.8315096,28.1714757 C41.2352417,25.0719789 45.2665989,22.7524339 49.6878098,21.3925454 L50.5751597,21.1196118 L54.8653031,32.0942748 L36.2420298,29.6188832 Z M39.7120219,31.0779106 L43.8899285,41.8434615 L51.2667329,32.6108893 L39.7120219,31.0779106 Z M43.2828715,45.8072462 L36.6247781,28.650797 L55.0388671,31.0938184 L43.2828715,45.8072462 Z M36.8659347,32.0035024 C34.0019574,35.2710502 31.8882267,39.1449814 30.6941684,43.3414613 L41.2555778,43.3166758 L36.8659347,32.0035024 Z M28.1321728,45.3474793 L28.4260884,44.112906 C29.7443926,38.5754538 32.5456719,33.5059791 36.5035808,29.4510132 L37.5892382,28.338733 L44.1742222,45.3098318 L28.1321728,45.3474793 Z M29.9442095,65.1682698 L41.9415,81.0695207 L41.9415,49.2678608 L29.9442095,65.1682698 Z M43.9415,87.040987 L27.4387905,65.1682379 L43.9415,43.2966469 L43.9415,87.040987 Z M29.5665,51.3760538 L29.5667879,60.7063725 L40.4275363,46.3065437 L30.0049226,46.3311031 C29.7142611,47.9947352 29.5665,49.68195 29.5665,51.3760538 Z M27.5665,51.3760847 C27.5665,49.2756118 27.7790482,47.185575 28.1959036,45.1339402 L28.3582384,44.3349777 L44.4482237,44.297064 L27.5669721,66.6792352 L27.5665,51.3760847 Z M29.5665,78.6108538 C29.5665,80.959686 29.8530563,83.2879568 30.4134518,85.5516417 L40.6705565,84.3513881 L29.5665,69.6319278 L29.5665,78.6108538 Z M27.5665,78.6108538 L27.5665,63.6597798 L44.3684435,85.9323195 L28.9341613,87.73839 L28.7042884,86.914498 C27.9522145,84.2189747 27.5665,81.4287535 27.5665,78.6108538 Z M31.2797884,88.4573749 C32.7091099,92.4536401 34.9927783,96.1005486 37.9570934,99.1395923 L41.3762479,87.2785024 L31.2797884,88.4573749 Z M38.9702129,102.845608 L37.7804613,101.753622 C33.6842081,97.9939735 30.6398421,93.209837 28.986343,87.9044413 L28.6276231,86.7534573 L44.1308521,84.9432852 L38.9702129,102.845608 Z M40.8038105,100.07572 L51.3802174,98.3673832 L44.0524592,88.7975955 L40.8038105,100.07572 Z M55.0024826,99.8082245 L38.0088895,102.553087 L43.2286408,84.4320122 L55.0024826,99.8082245 Z M51.7922297,101.324505 L42.3564497,102.846946 C44.653405,104.423068 47.1738544,105.668868 49.8526861,106.541046 L51.7922297,101.324505 Z M50.1813687,108.734956 C46.1612513,107.564778 42.4508552,105.616034 39.2373712,103.012721 L37.4993999,101.604753 L54.8634703,98.8031023 L51.0741239,108.99482 L50.1813687,108.734956 Z M58.94915,107.993604 L60.9868578,107.993595 L54.7008382,102.075171 L52.7459596,107.331585 C54.7796584,107.771024 56.8613246,107.993604 58.94915,107.993604 Z M51.1656175,109.013059 L50.0893894,108.737153 L53.8770618,98.5525964 L66.0286422,109.993573 L58.9491544,109.993604 C56.3213605,109.993604 53.7027364,109.663482 51.1656175,109.013059 Z M71.7980026,100.488312 L64.7699804,99.4568517 L57.3756133,100.491737 L64.7532612,107.436997 L71.7980026,100.488312 Z M52.9678867,99.089131 L64.7767196,97.4364159 L76.0610974,99.0925557 L64.7856388,110.214271 L52.9678867,99.089131 Z M71.05065,107.993644 C73.0347187,107.993644 75.0151568,107.791363 76.9633377,107.391566 L74.5112762,102.007819 L68.4448645,107.993623 L71.05065,107.993644 Z M75.1446238,98.5731885 L79.7916119,108.776116 L78.6233253,109.065809 C76.1409641,109.681346 73.5989834,109.993644 71.0506421,109.993644 L63.5704355,109.993584 L75.1446238,98.5731885 Z M79.8969531,106.625411 C82.592454,105.775484 85.1310588,104.548438 87.4482992,102.987929 L77.5018219,101.367311 L79.8969531,106.625411 Z M92.3495122,101.76013 L90.5844676,103.166332 C87.3569025,105.737717 83.6415804,107.655194 79.6212092,108.795458 L78.794521,109.029924 L74.1308781,98.7916965 L92.3495122,101.76013 Z M88.8489992,100.181448 L85.4938054,88.708321 L77.7533103,98.3754355 L88.8489992,100.181448 Z M86.3346946,84.4582867 L91.6591008,102.66516 L74.0511897,99.7991722 L86.3346946,84.4582867 Z M91.7480281,99.4476868 C94.8248444,96.3857031 97.1965401,92.6738041 98.6750225,88.5889944 L88.1917495,87.293325 L91.7480281,99.4476868 Z M101.331536,86.9021059 L100.969393,88.0483623 C99.2664661,93.4384608 96.1274254,98.2788076 91.9121478,102.040236 L90.7310971,103.094126 L85.4179505,84.9352826 L101.331536,86.9021059 Z M100.43425,78.6103038 L100.433566,69.2404823 L88.8876758,84.3668975 L99.5623499,85.6866316 C100.139267,83.3753822 100.43425,81.0047977 100.43425,78.6103038 Z M102.43425,78.6102308 C102.43425,81.476023 102.038878,84.3095429 101.268165,87.0562638 L101.035898,87.8840365 L85.1830242,85.9241101 L102.433134,63.3245253 L102.43425,78.6102308 Z M100.431779,61.231647 L100.43481,51.3803838 C100.43481,49.6943615 100.291824,48.0262012 100.00976,46.3879789 L88.9536931,46.8450097 L100.431779,61.231647 Z M101.644165,44.3187086 L101.813375,45.1547006 C102.225463,47.1906471 102.43481,49.2729887 102.43481,51.3806915 L102.430021,66.9431207 L84.9308069,45.0095979 L101.644165,44.3187086 Z" id="Page-1" fill="#16AA75" fill-rule="nonzero"></path>
        </g>
    </g>
</svg>