<?xml version="1.0" encoding="UTF-8"?>
<svg width="130px" height="130px" viewBox="0 0 130 130" version="1.1" xmlns="http://www.w3.org/2000/svg" xmlns:xlink="http://www.w3.org/1999/xlink">
    <!-- Generator: Sketch 45.1 (43504) - http://www.bohemiancoding.com/sketch -->
    <title>crystal1</title>
    <desc>Created with Sketch.</desc>
    <defs></defs>
    <g id="Page-1" stroke="none" stroke-width="1" fill="none" fill-rule="evenodd">
        <g id="crystal1">
            <rect id="Rectangle" fill="#FFFFFF" x="0" y="0" width="130" height="130"></rect>
            <path d="M95.4732817,28.9650844 C95.6268127,29.2021553 95.6160098,29.1714344 95.7625759,29.6170771 L95.8126331,29.9296123 C95.8100298,53.3268893 95.8077515,70.8768038 95.8057981,82.5793629 C95.8048215,88.4306652 95.803926,92.8201256 95.8031119,95.7477579 C95.8027048,97.2116194 95.802318,98.3100178 95.8019515,99.0429807 C95.8016791,99.5470765 95.8016791,99.5470765 95.8014167,99.868638 C95.8034294,100.07242 95.8034294,100.07242 95.7872729,100.309325 C95.7625515,100.46318 95.7209108,100.572404 95.6024561,100.827544 L95.4732715,101.034918 L87.8491557,110.469085 C87.7015331,110.614864 87.407266,110.833434 87.5224461,110.746054 L87.3242037,110.863174 C87.1275196,110.950592 86.9127783,111.000149 86.6914931,111.000149 L43.3084931,111.000149 C43.0594604,111.000149 42.8178821,110.941225 42.6191301,110.832091 C42.4665675,110.747157 42.2469612,110.564716 42.2794839,110.590339 L42.1200297,110.432713 C39.5822034,107.286829 37.6778469,104.925777 36.4069399,103.34953 C35.7714205,102.561324 35.2942722,101.969331 34.9754554,101.573501 C34.7560573,101.301054 34.7560573,101.301054 34.6155623,101.126361 C34.526461,101.017874 34.526461,101.017874 34.4158479,100.862416 C34.329701,100.719526 34.2950222,100.614636 34.2190852,100.320377 C34.1899665,76.6731128 34.192244,59.1231982 34.1941957,47.4206392 C34.1951715,41.569337 34.1960659,37.1798767 34.1968788,34.2522446 C34.1972853,32.7883832 34.1976714,31.6899849 34.1980372,30.9570223 C34.198309,30.4529268 34.198309,30.4529268 34.1985708,30.1313661 C34.1965689,29.9275196 34.1965689,29.9275196 34.212702,29.6907455 C34.2374224,29.536841 34.2790549,29.4276421 34.3975302,29.1724582 L34.5267146,28.9650844 L42.1508986,19.5308367 C42.3101833,19.3745508 42.4022816,19.3088955 42.5110148,19.2351177 C42.8286418,19.0813425 42.8286418,19.0813425 42.9222162,19.0602947 C42.9332813,19.0579444 43.062017,19.0390965 43.3084233,19.003751 L86.6915131,18.999851 C86.8403078,19.0029758 86.9321674,19.0207542 87.0423329,19.0516889 C87.0616628,19.0571168 87.1745207,19.0958618 87.3809067,19.1679238 C87.5334592,19.2528589 87.7530883,19.4353256 87.7205345,19.4096765 L87.8794817,19.5666844 L95.4732817,28.9650844 Z M94.6954531,29.593561 L93.9176246,30.2220376 L86.3238246,20.8236376 L87.1016531,20.195161 L86.4827718,20.9806455 C86.471128,20.9575226 86.6214351,20.6514245 86.9336931,20.062351 L86.6527729,21.0220821 C86.6723223,21.0072378 72.2242657,21.0011274 43.308603,21.003751 L43.3085131,20.003751 L43.5198337,20.9811678 C43.3601048,21.0131032 43.3249646,21.0193671 43.3377555,21.0166503 C43.3854924,21.0037651 43.302825,20.6817587 43.0897531,20.050631 L43.6684915,20.8661443 C43.6636237,20.8491915 41.1349171,23.9678226 36.0823717,30.2220376 L35.3045431,29.593561 L36.2115561,30.0146638 C36.1983086,30.4541705 36.1983086,30.4541705 36.1980369,30.9580203 C36.1976712,31.6908048 36.1972852,32.7890738 36.1968787,34.2527999 C36.1960658,37.1803428 36.1951715,41.5697383 36.1941956,47.4209728 C36.192249,59.0932718 36.1899782,76.5827824 36.1873833,99.8894978 C36.1873788,99.9297483 35.8540388,99.9900827 35.1873631,100.070501 L36.1556411,99.8206254 C36.3142345,100.047226 36.3210021,100.05563 36.5330522,100.318953 C36.8516095,100.714461 37.3285692,101.30622 37.9638914,102.09418 C39.2107468,103.640597 41.0674628,105.942595 43.5340203,109.000149 C43.635261,109.125647 43.6559377,109.151278 43.6766566,109.176961 L42.8983431,109.804837 L43.5172024,109.019335 C43.4407118,109.01395 43.3716161,109.000149 43.3084931,109.000149 L86.6914931,109.000149 C86.6199552,109.000149 86.5609331,109.01377 86.5119026,109.035562 L86.9180531,109.949368 L86.3280018,109.171586 L93.9176148,99.7779643 L94.6954431,100.406441 L93.7884302,99.9853382 C93.8016795,99.5458302 93.8016795,99.5458302 93.8019517,99.0419807 C93.8023181,98.3091965 93.8027049,97.2109276 93.8031119,95.7472016 C93.8039261,92.8196589 93.8048215,88.4302634 93.8057982,82.5790291 C93.807747,70.9036535 93.8100193,53.4079993 93.812615,30.0920734 C93.8126191,30.0559424 94.1459584,30.0017516 94.8126331,29.929501 L93.8626904,30.2419249 C93.8288461,30.1300116 94.1064337,29.9138903 94.6954531,29.593561 Z M82.3550402,33.3076267 L91.8211897,29.3101335 L88.9566938,25.7650566 L87.0331854,23.3844372 L82.3550402,33.3076267 Z M90.5123394,24.5080893 L95.0462566,30.1192285 L78.3164061,37.1841353 L86.5842608,19.6465248 L90.5123394,24.5080893 Z M45.7182166,22.0542077 L46.2484309,23.1783625 L51.7007525,34.74193 L78.3035754,34.745662 L84.0989959,22.4534188 L84.2846935,22.0582845 L45.7182166,22.0542077 Z M86.7645404,21.4837832 L85.9085445,23.3052006 L79.5716909,36.74584 L50.4325138,36.741752 L50.1621354,36.1683195 L44.4394868,24.0314285 L42.5634497,20.0538743 L87.4343128,20.0586175 L86.7645404,21.4837832 Z M52.2583031,37.800451 L52.2583031,92.198451 L77.7423031,92.198451 L77.7423031,37.800451 L52.2583031,37.800451 Z M79.7423031,94.198451 L50.2583031,94.198451 L50.2583031,35.800451 L79.7423031,35.800451 L79.7423031,94.198451 Z M41.0431325,25.7649266 L38.1784415,29.3096477 L47.64451,33.3071068 L42.9666335,23.3843163 L41.0431325,25.7649266 Z M39.4875386,24.5078952 L43.4155728,19.6463857 L51.6830962,37.1835952 L34.9531648,30.1186543 L39.4875386,24.5078952 Z M37.2458151,97.7691738 L43.2237942,95.2429438 L49.2029031,92.7158543 L49.2029031,37.2840447 L43.2007122,34.7491348 L37.2419911,32.2338485 L37.2458151,97.7691738 Z M36.6307941,29.8049672 L43.97866,32.9066373 L51.2029031,35.9576573 L51.2029031,94.0418477 L50.5922121,94.2999582 L44.0023621,97.0851793 L35.2459912,100.785528 L35.2418152,29.2186535 L36.6307941,29.8049672 Z M47.6447864,96.6921052 L38.1790501,100.689424 L40.891067,104.043566 L42.9669228,106.614699 L47.6447864,96.6921052 Z M42.4130393,109.112439 L39.335391,105.300495 L34.9531562,99.8806781 L51.6834199,92.8155968 L43.4152835,110.353809 L42.4130393,109.112439 Z M84.2783916,107.945133 L84.0597519,107.481006 L78.2989249,95.257681 L51.7001376,95.257681 L46.2907842,106.727452 L45.7179052,107.941435 L84.2783916,107.945133 Z M43.2359621,108.514516 L44.4819637,105.874124 L50.4321087,93.257681 L79.5673214,93.257681 L79.8376944,93.8313585 L85.8689711,106.628524 L87.4314947,109.945435 L42.5627411,109.941133 L43.2359621,108.514516 Z M89.1082593,104.043596 L91.8204667,100.689808 L82.3548159,96.6925251 L87.0324109,106.61472 L89.1082593,104.043596 Z M86.5840354,110.353848 L78.3162304,92.8160369 L95.0465796,99.8811543 L90.6641342,105.300279 L86.5840354,110.353848 Z M92.7535992,32.234096 L86.6425229,34.8154147 L80.7965588,37.2839922 L80.8003775,92.7155724 L86.6269888,95.176371 L92.7573371,97.765474 L92.7535992,32.234096 Z M85.8488607,97.0187924 L78.8004688,94.0419896 L78.7964675,35.9575698 L79.4075034,35.6995473 L85.8644021,32.9729901 L94.7534271,29.218266 L94.7575092,100.781288 L85.8488607,97.0187924 Z" id="Page-1" fill="#C10090" fill-rule="nonzero"></path>
        </g>
    </g>
</svg>